<?xml version="1.0" encoding="UTF-8" standalone="no"?>
<svg
   width="68.914536mm"
   height="79.310692mm"
   viewBox="0 0 68.914536 79.310692"
   version="1.1"
   id="svg1"
   xml:space="preserve"
   xmlns="http://www.w3.org/2000/svg"
   xmlns:svg="http://www.w3.org/2000/svg"><defs
     id="defs1" /><g
     id="layer1"
     transform="translate(-69.934034,-72.134785)"><g
       id="g8"
       transform="rotate(-11.881306,63.188605,518.87824)"><path
         id="path8-2"
         style="fill:#d0383e;fill-opacity:1;stroke-width:0.264583"
         d="m 175.25069,119.05142 c -3.0423,-0.49882 -5.63535,-2.92173 -7.56538,-8.62628 -0.5202,-1.53756 -1.08332,-5.42077 -1.08332,-7.01498 0,-4.158217 1.20188,-6.775854 3.34435,-8.795986 1.13022,-1.065674 4.44341,-2.119413 5.86484,-2.119413 3.8533,-10e-7 5.66949,6.734454 5.85822,13.617719 0.0689,2.51184 -0.83945,4.97844 -1.31056,7.20988 -0.27656,1.30992 -0.4003,2.53395 -0.795,3.5891 -0.3646,0.97469 -0.96996,1.80526 -1.91743,2.42628 -0.83078,0.54455 -1.84776,-0.19647 -2.39572,-0.28632 z" /><path
         id="path6"
         style="baseline-shift:baseline;display:inline;overflow:visible;vector-effect:none;fill:#d0383e;fill-opacity:1;enable-background:accumulate;stop-color:#000000;stop-opacity:1"
         d="m 175.1396,127.63251 c -3.18391,2.76883 -6.2641,11.72522 -9.5405,12.7553 -0.23807,0.0748 -2.16844,0.56441 -2.79156,0.53381 -1.75195,-0.0861 -4.05751,0.66354 -4.61626,2.47479 -2.26908,7.35547 2.76793,19.87473 7.79126,21.57956 3.10352,1.05327 9.95187,0.58512 13.78985,-2.25309 3.25597,-2.40781 5.14793,-4.11608 8.52739,-6.26009 3.43412,1.68709 5.80096,3.22352 9.16094,5.29839 4.06142,2.50803 10.92564,2.40361 13.93042,1.09502 4.86348,-2.11808 8.83792,-15.01426 5.96294,-22.15472 -0.70794,-1.7583 -3.0683,-2.31297 -4.80694,-2.08101 -0.6184,0.0825 -2.5827,-0.24397 -2.82618,-0.29869 -2.19061,-0.49231 -17.14066,-25.85626 -34.58136,-10.68927 z" /><path
         id="path7"
         style="fill:#d0383e;fill-opacity:1;stroke-width:0.264583"
         d="m 167.30611,122.13322 c 0.16544,1.919 0.31516,4.61559 -0.0699,6.20437 -0.76774,3.16814 -2.84018,4.5328 -5.40319,4.75377 -3.84833,0.33177 -7.46158,-3.689 -7.95693,-9.43464 -0.22249,-2.58073 0.43334,-5.91631 1.31869,-7.82444 1.08575,-2.34005 2.12656,-3.31896 4.24636,-3.50171 1.76043,-0.15178 3.36042,1.05233 4.72561,2.55426 1.61911,1.78129 2.87055,4.13113 3.13931,7.24839 z" /><path
         id="path7-7"
         style="fill:#d0383e;fill-opacity:1;stroke-width:0.26458"
         d="m 205.41449,125.97779 c 1.51746,2.88512 3.72991,4.74401 6.26935,4.33311 3.81294,-0.61698 7.50721,-4.81215 6.58601,-10.50505 -0.41377,-2.55704 -2.25382,-7.25836 -3.57786,-8.89288 -1.62375,-2.00451 -3.5225,-2.69995 -5.62279,-2.36011 -1.74423,0.28224 -3.09381,1.01561 -4.08979,2.78407 -1.95647,3.47389 -2.51731,6.22905 -2.22792,8.51575 0.39535,3.12399 2.20847,5.26091 2.663,6.12511 z" /><path
         id="path8"
         style="fill:#d0383e;fill-opacity:1;stroke-width:0.264583"
         d="m 202.6485,104.41307 c -0.0436,5.33571 -4.62475,10.44285 -8.09665,12.60502 -2.61694,1.62973 -4.98476,-4.02773 -7.56537,-8.62628 -0.79437,-1.41552 -1.08333,-5.42077 -1.08333,-7.01498 0,-4.158218 0.0959,-8.077037 2.23835,-10.097169 1.13022,-1.065674 3.79282,-1.403762 5.21425,-1.403763 3.00213,-1e-6 6.96977,2.417348 8.15035,6.364703 0.24042,0.803831 1.2771,2.717858 1.45612,4.126319 0.14714,1.15765 -0.30884,3.44956 -0.31372,4.04615 z" /></g></g></svg>
